<svg width="155" height="32" viewBox="0 0 155 32" fill="none" xmlns="http://www.w3.org/2000/svg">
<path fill-rule="evenodd" clip-rule="evenodd" d="M12.0331 6.47051C12.0331 4.27766 13.8082 2.5 15.998 2.5C18.1877 2.5 19.9628 4.27766 19.9628 6.47051C19.9628 7.63653 19.4609 8.68516 18.6617 9.41155L21.7943 10.9303C22.6592 11.3496 23.219 12.212 23.2552 13.1682C23.9707 12.4635 24.9522 12.0288 26.0351 12.0288C28.2249 12.0288 30 13.8065 30 15.9993C30 18.1922 28.2249 19.9698 26.0351 19.9698C24.9513 19.9698 23.969 19.5343 23.2533 18.8285C23.2033 19.7623 22.654 20.6019 21.8098 21.0181L18.6486 22.5767C19.4555 23.3035 19.9628 24.3572 19.9628 25.5295C19.9628 27.7223 18.1877 29.5 15.998 29.5C13.8082 29.5 12.0331 27.7223 12.0331 25.5295C12.0331 24.3678 12.5313 23.3226 13.3255 22.5965L10.1729 21.0176C9.33533 20.5982 8.79202 19.7611 8.74358 18.8316C8.02813 19.5356 7.04714 19.9698 5.96487 19.9698C3.77513 19.9698 2 18.1922 2 15.9993C2 13.8065 3.77513 12.0288 5.96487 12.0288C7.04623 12.0288 8.02648 12.4623 8.74177 13.1653C8.77643 12.2133 9.3302 11.3533 10.1884 10.9307L13.3129 9.39199C12.5261 8.6664 12.0331 7.62611 12.0331 6.47051ZM15.998 4.57681C14.9536 4.57681 14.107 5.42465 14.107 6.47051C14.107 7.51637 14.9536 8.36421 15.998 8.36421C17.0424 8.36421 17.889 7.51637 17.889 6.47051C17.889 5.42465 17.0424 4.57681 15.998 4.57681ZM16.1812 10.5164C16.0375 10.4467 15.8698 10.4472 15.7265 10.5178L11.1036 12.7943C10.9262 12.8817 10.8139 13.0623 10.8139 13.2602V18.6958C10.8139 18.8924 10.9248 19.0722 11.1005 19.1602L15.7234 21.4754C15.8684 21.548 16.0389 21.5485 16.1844 21.4768L20.8937 19.1549C21.071 19.0675 21.1832 18.8869 21.1832 18.6891V13.2669C21.1832 13.0679 21.0696 12.8863 20.8907 12.7996L16.1812 10.5164ZM14.107 25.5295C14.107 24.4836 14.9536 23.6358 15.998 23.6358C17.0424 23.6358 17.889 24.4836 17.889 25.5295C17.889 26.5754 17.0424 27.4232 15.998 27.4232C14.9536 27.4232 14.107 26.5754 14.107 25.5295ZM26.0351 14.1056C24.9908 14.1056 24.1441 14.9534 24.1441 15.9993C24.1441 17.0452 24.9908 17.893 26.0351 17.893C27.0795 17.893 27.9261 17.0452 27.9261 15.9993C27.9261 14.9534 27.0795 14.1056 26.0351 14.1056ZM4.07386 15.9993C4.07386 14.9534 4.92049 14.1056 5.96487 14.1056C7.00925 14.1056 7.85589 14.9534 7.85589 15.9993C7.85589 17.0452 7.00925 17.893 5.96487 17.893C4.92049 17.893 4.07386 17.0452 4.07386 15.9993Z" fill="#73D997"/>
<path d="M141.766 22.61C140.871 22.61 140.078 22.4223 139.388 22.047C138.71 21.6596 138.177 21.1209 137.789 20.4309C137.414 19.7287 137.227 18.9055 137.227 17.9612V17.7433C137.227 16.799 137.414 15.9819 137.789 15.2918C138.165 14.5896 138.691 14.0509 139.369 13.6756C140.047 13.2882 140.834 13.0945 141.73 13.0945C142.614 13.0945 143.383 13.2943 144.036 13.6938C144.69 14.0812 145.198 14.626 145.562 15.3281C145.925 16.0182 146.106 16.8232 146.106 17.7433V18.5241H139.551C139.575 19.1415 139.805 19.644 140.241 20.0313C140.677 20.4187 141.209 20.6124 141.839 20.6124C142.481 20.6124 142.953 20.4732 143.255 20.1948C143.558 19.9163 143.788 19.6076 143.945 19.2687L145.816 20.2493C145.646 20.564 145.398 20.909 145.071 21.2843C144.757 21.6475 144.333 21.9623 143.8 22.2286C143.268 22.4828 142.59 22.61 141.766 22.61ZM139.569 16.8172H143.782C143.734 16.2966 143.522 15.879 143.146 15.5642C142.783 15.2494 142.305 15.0921 141.712 15.0921C141.094 15.0921 140.604 15.2494 140.241 15.5642C139.878 15.879 139.654 16.2966 139.569 16.8172Z" fill="white"/>
<path d="M131.253 22.61C130.381 22.61 129.588 22.4284 128.874 22.0652C128.172 21.702 127.615 21.1754 127.203 20.4853C126.792 19.7953 126.586 18.96 126.586 17.9794V17.7251C126.586 16.7445 126.792 15.9092 127.203 15.2192C127.615 14.5291 128.172 14.0025 128.874 13.6393C129.588 13.2761 130.381 13.0945 131.253 13.0945C132.112 13.0945 132.851 13.2459 133.468 13.5485C134.086 13.8512 134.582 14.2688 134.957 14.8015C135.345 15.3221 135.599 15.9153 135.72 16.5811L133.505 17.0532C133.456 16.6901 133.347 16.3632 133.178 16.0726C133.008 15.7821 132.766 15.5521 132.451 15.3826C132.149 15.2131 131.767 15.1284 131.307 15.1284C130.847 15.1284 130.43 15.2313 130.054 15.4371C129.691 15.6308 129.401 15.9274 129.183 16.3269C128.977 16.7143 128.874 17.1925 128.874 17.7615V17.943C128.874 18.512 128.977 18.9963 129.183 19.3958C129.401 19.7832 129.691 20.0798 130.054 20.2856C130.43 20.4793 130.847 20.5761 131.307 20.5761C131.997 20.5761 132.518 20.4006 132.869 20.0495C133.232 19.6863 133.462 19.2142 133.559 18.6331L135.774 19.1597C135.617 19.8013 135.345 20.3885 134.957 20.9211C134.582 21.4417 134.086 21.8533 133.468 22.156C132.851 22.4586 132.112 22.61 131.253 22.61Z" fill="white"/>
<path d="M122.194 22.3557V13.3488H124.482V22.3557H122.194ZM123.338 12.2955C122.926 12.2955 122.575 12.1624 122.285 11.896C122.006 11.6297 121.867 11.2786 121.867 10.8428C121.867 10.407 122.006 10.0559 122.285 9.78958C122.575 9.52324 122.926 9.39008 123.338 9.39008C123.762 9.39008 124.113 9.52324 124.391 9.78958C124.67 10.0559 124.809 10.407 124.809 10.8428C124.809 11.2786 124.67 11.6297 124.391 11.896C124.113 12.1624 123.762 12.2955 123.338 12.2955Z" fill="white"/>
<path d="M114.135 22.3557L111.266 13.3488H113.699L115.787 20.6851H116.114L118.202 13.3488H120.636L117.767 22.3557H114.135Z" fill="white"/>
<path d="M105.047 22.3557V13.3488H107.299V14.3657H107.625C107.759 14.0025 107.977 13.7362 108.279 13.5667C108.594 13.3972 108.957 13.3124 109.369 13.3124H110.458V15.3463H109.332C108.751 15.3463 108.273 15.5036 107.898 15.8184C107.523 16.1211 107.335 16.5932 107.335 17.2348V22.3557H105.047Z" fill="white"/>
<path d="M98.6726 22.61C97.7768 22.61 96.9838 22.4223 96.2938 22.047C95.6158 21.6596 95.0831 21.1209 94.6957 20.4309C94.3205 19.7287 94.1328 18.9055 94.1328 17.9612V17.7433C94.1328 16.799 94.3205 15.9819 94.6957 15.2918C95.071 14.5896 95.5977 14.0509 96.2756 13.6756C96.9535 13.2882 97.7404 13.0945 98.6363 13.0945C99.52 13.0945 100.289 13.2943 100.943 13.6938C101.596 14.0812 102.105 14.626 102.468 15.3281C102.831 16.0182 103.013 16.8232 103.013 17.7433V18.5241H96.4572C96.4814 19.1415 96.7114 19.644 97.1472 20.0313C97.5831 20.4187 98.1157 20.6124 98.7452 20.6124C99.3869 20.6124 99.859 20.4732 100.162 20.1948C100.464 19.9163 100.694 19.6076 100.852 19.2687L102.722 20.2493C102.553 20.564 102.304 20.909 101.978 21.2843C101.663 21.6475 101.239 21.9623 100.706 22.2286C100.174 22.4828 99.4958 22.61 98.6726 22.61ZM96.4753 16.8172H100.688C100.64 16.2966 100.428 15.879 100.053 15.5642C99.6895 15.2494 99.2113 15.0921 98.6181 15.0921C98.0007 15.0921 97.5104 15.2494 97.1472 15.5642C96.784 15.879 96.5601 16.2966 96.4753 16.8172Z" fill="white"/>
<path d="M88.7883 22.61C87.614 22.61 86.6516 22.3557 85.901 21.8473C85.1504 21.3388 84.6964 20.6124 84.5391 19.6682L86.6455 19.1234C86.7303 19.5471 86.8695 19.88 87.0632 20.1221C87.269 20.3643 87.5172 20.5398 87.8077 20.6488C88.1104 20.7456 88.4372 20.794 88.7883 20.794C89.321 20.794 89.7144 20.7032 89.9687 20.5216C90.2229 20.3279 90.35 20.0919 90.35 19.8134C90.35 19.535 90.2289 19.3231 89.9868 19.1779C89.7447 19.0205 89.3573 18.8934 88.8246 18.7965L88.3162 18.7057C87.6867 18.5847 87.1116 18.4212 86.591 18.2154C86.0705 17.9975 85.6528 17.7009 85.3381 17.3256C85.0233 16.9503 84.8659 16.4661 84.8659 15.8729C84.8659 14.977 85.1928 14.293 85.8465 13.8209C86.5003 13.3367 87.3598 13.0945 88.4251 13.0945C89.4299 13.0945 90.2653 13.3185 90.9311 13.7664C91.5969 14.2144 92.0327 14.8015 92.2386 15.5279L90.1139 16.1816C90.0171 15.7216 89.8173 15.3947 89.5147 15.201C89.2241 15.0073 88.8609 14.9105 88.4251 14.9105C87.9893 14.9105 87.6564 14.9892 87.4264 15.1465C87.1964 15.2918 87.0813 15.4976 87.0813 15.7639C87.0813 16.0545 87.2024 16.2724 87.4445 16.4177C87.6867 16.5508 88.0135 16.6537 88.4251 16.7264L88.9336 16.8172C89.6115 16.9382 90.2229 17.1017 90.7677 17.3075C91.3245 17.5012 91.7604 17.7857 92.0751 18.161C92.402 18.5241 92.5654 19.0205 92.5654 19.65C92.5654 20.5943 92.2204 21.3267 91.5303 21.8473C90.8524 22.3557 89.9384 22.61 88.7883 22.61Z" fill="white"/>
<path d="M78.2136 22.61C77.3177 22.61 76.5127 22.4284 75.7984 22.0652C75.0841 21.702 74.5212 21.1754 74.1096 20.4853C73.698 19.7953 73.4922 18.966 73.4922 17.9975V17.707C73.4922 16.7385 73.698 15.9092 74.1096 15.2192C74.5212 14.5291 75.0841 14.0025 75.7984 13.6393C76.5127 13.2761 77.3177 13.0945 78.2136 13.0945C79.1094 13.0945 79.9145 13.2761 80.6287 13.6393C81.343 14.0025 81.9059 14.5291 82.3175 15.2192C82.7292 15.9092 82.935 16.7385 82.935 17.707V17.9975C82.935 18.966 82.7292 19.7953 82.3175 20.4853C81.9059 21.1754 81.343 21.702 80.6287 22.0652C79.9145 22.4284 79.1094 22.61 78.2136 22.61ZM78.2136 20.5761C78.9157 20.5761 79.4968 20.3522 79.9569 19.9042C80.4169 19.4442 80.6469 18.7905 80.6469 17.943V17.7615C80.6469 16.914 80.4169 16.2663 79.9569 15.8184C79.5089 15.3584 78.9278 15.1284 78.2136 15.1284C77.5114 15.1284 76.9303 15.3584 76.4703 15.8184C76.0103 16.2663 75.7802 16.914 75.7802 17.7615V17.943C75.7802 18.7905 76.0103 19.4442 76.4703 19.9042C76.9303 20.3522 77.5114 20.5761 78.2136 20.5761Z" fill="white"/>
<path d="M62.7344 22.3557V13.3488H64.9861V14.5291H65.313C65.4583 14.2144 65.7306 13.9178 66.1301 13.6393C66.5296 13.3488 67.1349 13.2035 67.9461 13.2035C68.6482 13.2035 69.2596 13.3669 69.7801 13.6938C70.3128 14.0085 70.7244 14.4504 71.015 15.0194C71.3055 15.5763 71.4508 16.23 71.4508 16.9806V22.3557H69.1627V17.1622C69.1627 16.4842 68.9932 15.9758 68.6543 15.6368C68.3274 15.2978 67.8553 15.1284 67.2379 15.1284C66.5357 15.1284 65.9909 15.3644 65.6035 15.8366C65.2161 16.2966 65.0224 16.9443 65.0224 17.7796V22.3557H62.7344Z" fill="white"/>
<path d="M55.0339 22.61C54.3922 22.61 53.8172 22.501 53.3087 22.2831C52.8003 22.0531 52.3947 21.7262 52.0921 21.3025C51.8015 20.8667 51.6562 20.3401 51.6562 19.7226C51.6562 19.1052 51.8015 18.5907 52.0921 18.1791C52.3947 17.7554 52.8063 17.4406 53.3269 17.2348C53.8596 17.0169 54.4649 16.908 55.1428 16.908H57.6125V16.3995C57.6125 15.9758 57.4793 15.6308 57.213 15.3644C56.9466 15.086 56.5229 14.9468 55.9418 14.9468C55.3728 14.9468 54.9491 15.0799 54.6707 15.3463C54.3922 15.6005 54.2106 15.9334 54.1259 16.345L52.0194 15.6368C52.1647 15.1768 52.3947 14.7591 52.7095 14.3838C53.0363 13.9964 53.4661 13.6877 53.9988 13.4577C54.5436 13.2156 55.2033 13.0945 55.9781 13.0945C57.1645 13.0945 58.1028 13.3911 58.7928 13.9843C59.4829 14.5775 59.8279 15.4371 59.8279 16.5629V19.9224C59.8279 20.2856 59.9974 20.4672 60.3363 20.4672H61.0627V22.3557H59.5373C59.0894 22.3557 58.7202 22.2468 58.4296 22.0289C58.1391 21.8109 57.9938 21.5204 57.9938 21.1572V21.1391H57.6488C57.6004 21.2843 57.4914 21.478 57.3219 21.7202C57.1524 21.9502 56.8861 22.156 56.5229 22.3376C56.1597 22.5192 55.6634 22.61 55.0339 22.61ZM55.4334 20.7577C56.075 20.7577 56.5955 20.5822 56.995 20.2311C57.4067 19.8679 57.6125 19.3897 57.6125 18.7965V18.6149H55.3062C54.8825 18.6149 54.5496 18.7057 54.3075 18.8873C54.0654 19.0689 53.9443 19.3231 53.9443 19.65C53.9443 19.9769 54.0714 20.2432 54.3256 20.449C54.5799 20.6548 54.9491 20.7577 55.4334 20.7577Z" fill="white"/>
<path d="M40 22.3557V9.64429H44.558L47.0821 20.7214H47.4089V9.64429H49.7696V22.3557H45.2117L42.6876 11.2786H42.3607V22.3557H40Z" fill="white"/>
</svg>
