<svg width="155" height="32" viewBox="0 0 155 32" fill="none" xmlns="http://www.w3.org/2000/svg">
<path fill-rule="evenodd" clip-rule="evenodd" d="M12.0331 6.47051C12.0331 4.27766 13.8082 2.5 15.998 2.5C18.1877 2.5 19.9628 4.27766 19.9628 6.47051C19.9628 7.63653 19.4609 8.68516 18.6617 9.41155L21.7943 10.9303C22.6592 11.3496 23.219 12.212 23.2552 13.1682C23.9707 12.4635 24.9522 12.0288 26.0351 12.0288C28.2249 12.0288 30 13.8065 30 15.9993C30 18.1922 28.2249 19.9698 26.0351 19.9698C24.9513 19.9698 23.969 19.5343 23.2533 18.8285C23.2033 19.7623 22.654 20.6019 21.8098 21.0181L18.6486 22.5767C19.4555 23.3035 19.9628 24.3572 19.9628 25.5295C19.9628 27.7223 18.1877 29.5 15.998 29.5C13.8082 29.5 12.0331 27.7223 12.0331 25.5295C12.0331 24.3678 12.5313 23.3226 13.3255 22.5965L10.1729 21.0176C9.33533 20.5982 8.79202 19.7611 8.74358 18.8316C8.02813 19.5356 7.04714 19.9698 5.96487 19.9698C3.77513 19.9698 2 18.1922 2 15.9993C2 13.8065 3.77513 12.0288 5.96487 12.0288C7.04623 12.0288 8.02648 12.4623 8.74177 13.1653C8.77643 12.2133 9.3302 11.3533 10.1884 10.9307L13.3129 9.39199C12.5261 8.6664 12.0331 7.62611 12.0331 6.47051ZM15.998 4.57681C14.9536 4.57681 14.107 5.42465 14.107 6.47051C14.107 7.51637 14.9536 8.36421 15.998 8.36421C17.0424 8.36421 17.889 7.51637 17.889 6.47051C17.889 5.42465 17.0424 4.57681 15.998 4.57681ZM16.1812 10.5164C16.0375 10.4467 15.8698 10.4472 15.7265 10.5178L11.1036 12.7943C10.9262 12.8817 10.8139 13.0623 10.8139 13.2602V18.6958C10.8139 18.8924 10.9248 19.0722 11.1005 19.1602L15.7234 21.4754C15.8684 21.548 16.0389 21.5485 16.1844 21.4768L20.8937 19.1549C21.071 19.0675 21.1832 18.8869 21.1832 18.6891V13.2669C21.1832 13.0679 21.0696 12.8863 20.8907 12.7996L16.1812 10.5164ZM14.107 25.5295C14.107 24.4836 14.9536 23.6358 15.998 23.6358C17.0424 23.6358 17.889 24.4836 17.889 25.5295C17.889 26.5754 17.0424 27.4232 15.998 27.4232C14.9536 27.4232 14.107 26.5754 14.107 25.5295ZM26.0351 14.1056C24.9908 14.1056 24.1441 14.9534 24.1441 15.9993C24.1441 17.0452 24.9908 17.893 26.0351 17.893C27.0795 17.893 27.9261 17.0452 27.9261 15.9993C27.9261 14.9534 27.0795 14.1056 26.0351 14.1056ZM4.07386 15.9993C4.07386 14.9534 4.92049 14.1056 5.96487 14.1056C7.00925 14.1056 7.85589 14.9534 7.85589 15.9993C7.85589 17.0452 7.00925 17.893 5.96487 17.893C4.92049 17.893 4.07386 17.0452 4.07386 15.9993Z" fill="#39C068"/>
<mask id="path-2-outside-1_2556_40198" maskUnits="userSpaceOnUse" x="39" y="8.39008" width="108" height="15" fill="black">
<rect fill="white" x="39" y="8.39008" width="108" height="15"/>
<path d="M40 22.3557V9.6443H44.558L47.0821 20.7214H47.4089V9.6443H49.7696V22.3557H45.2117L42.6876 11.2786H42.3607V22.3557H40Z"/>
<path d="M55.0344 22.61C54.3928 22.61 53.8177 22.501 53.3093 22.2831C52.8008 22.0531 52.3952 21.7262 52.0926 21.3025C51.802 20.8667 51.6568 20.3401 51.6568 19.7226C51.6568 19.1052 51.802 18.5907 52.0926 18.1791C52.3952 17.7554 52.8068 17.4406 53.3274 17.2348C53.8601 17.0169 54.4654 16.908 55.1433 16.908H57.613V16.3995C57.613 15.9758 57.4798 15.6308 57.2135 15.3644C56.9471 15.086 56.5234 14.9468 55.9423 14.9468C55.3733 14.9468 54.9496 15.0799 54.6712 15.3463C54.3927 15.6005 54.2112 15.9334 54.1264 16.345L52.02 15.6368C52.1652 15.1768 52.3952 14.7591 52.71 14.3838C53.0369 13.9965 53.4666 13.6877 53.9993 13.4577C54.5441 13.2156 55.2039 13.0945 55.9787 13.0945C57.1651 13.0945 58.1033 13.3911 58.7933 13.9843C59.4834 14.5775 59.8284 15.4371 59.8284 16.5629V19.9224C59.8284 20.2856 59.9979 20.4672 60.3369 20.4672H61.0632V22.3557H59.5378C59.0899 22.3557 58.7207 22.2468 58.4301 22.0289C58.1396 21.8109 57.9943 21.5204 57.9943 21.1572V21.1391H57.6493C57.6009 21.2843 57.4919 21.478 57.3224 21.7202C57.1529 21.9502 56.8866 22.156 56.5234 22.3376C56.1602 22.5192 55.6639 22.61 55.0344 22.61ZM55.4339 20.7577C56.0755 20.7577 56.5961 20.5822 56.9956 20.2311C57.4072 19.8679 57.613 19.3897 57.613 18.7965V18.6149H55.3068C54.883 18.6149 54.5501 18.7057 54.308 18.8873C54.0659 19.0689 53.9448 19.3231 53.9448 19.65C53.9448 19.9769 54.0719 20.2432 54.3262 20.449C54.5804 20.6548 54.9496 20.7577 55.4339 20.7577Z"/>
<path d="M62.7361 22.3557V13.3488H64.9879V14.5291H65.3147C65.46 14.2144 65.7324 13.9178 66.1319 13.6393C66.5314 13.3488 67.1367 13.2035 67.9478 13.2035C68.65 13.2035 69.2613 13.3669 69.7819 13.6938C70.3146 14.0086 70.7262 14.4504 71.0167 15.0194C71.3073 15.5763 71.4525 16.23 71.4525 16.9806V22.3557H69.1645V17.1622C69.1645 16.4843 68.995 15.9758 68.656 15.6368C68.3292 15.2979 67.857 15.1284 67.2396 15.1284C66.5375 15.1284 65.9927 15.3644 65.6053 15.8366C65.2179 16.2966 65.0242 16.9443 65.0242 17.7796V22.3557H62.7361Z"/>
<path d="M78.2116 22.61C77.3157 22.61 76.5107 22.4284 75.7964 22.0652C75.0821 21.702 74.5192 21.1754 74.1076 20.4853C73.696 19.7953 73.4902 18.966 73.4902 17.9975V17.707C73.4902 16.7385 73.696 15.9092 74.1076 15.2192C74.5192 14.5291 75.0821 14.0025 75.7964 13.6393C76.5107 13.2761 77.3157 13.0945 78.2116 13.0945C79.1074 13.0945 79.9125 13.2761 80.6267 13.6393C81.341 14.0025 81.9039 14.5291 82.3155 15.2192C82.7272 15.9092 82.933 16.7385 82.933 17.707V17.9975C82.933 18.966 82.7272 19.7953 82.3155 20.4853C81.9039 21.1754 81.341 21.702 80.6267 22.0652C79.9125 22.4284 79.1074 22.61 78.2116 22.61ZM78.2116 20.5761C78.9137 20.5761 79.4948 20.3522 79.9549 19.9042C80.4149 19.4442 80.6449 18.7905 80.6449 17.943V17.7615C80.6449 16.914 80.4149 16.2663 79.9549 15.8184C79.5069 15.3584 78.9258 15.1284 78.2116 15.1284C77.5094 15.1284 76.9283 15.3584 76.4683 15.8184C76.0083 16.2663 75.7782 16.914 75.7782 17.7615V17.943C75.7782 18.7905 76.0083 19.4442 76.4683 19.9042C76.9283 20.3522 77.5094 20.5761 78.2116 20.5761Z"/>
<path d="M88.7857 22.61C87.6115 22.61 86.649 22.3557 85.8984 21.8473C85.1479 21.3388 84.6939 20.6124 84.5365 19.6682L86.643 19.1234C86.7277 19.5471 86.8669 19.88 87.0606 20.1221C87.2664 20.3643 87.5146 20.5398 87.8052 20.6488C88.1078 20.7456 88.4347 20.794 88.7857 20.794C89.3184 20.794 89.7119 20.7032 89.9661 20.5216C90.2203 20.3279 90.3474 20.0919 90.3474 19.8134C90.3474 19.535 90.2264 19.3231 89.9843 19.1779C89.7421 19.0205 89.3547 18.8934 88.8221 18.7965L88.3136 18.7057C87.6841 18.5847 87.109 18.4212 86.5885 18.2154C86.0679 17.9975 85.6503 17.7009 85.3355 17.3256C85.0207 16.9503 84.8634 16.4661 84.8634 15.8729C84.8634 14.977 85.1902 14.2931 85.844 13.8209C86.4977 13.3367 87.3572 13.0945 88.4226 13.0945C89.4274 13.0945 90.2627 13.3185 90.9285 13.7664C91.5944 14.2144 92.0302 14.8015 92.236 15.5279L90.1114 16.1816C90.0145 15.7216 89.8148 15.3947 89.5121 15.201C89.2216 15.0073 88.8584 14.9105 88.4226 14.9105C87.9867 14.9105 87.6538 14.9892 87.4238 15.1465C87.1938 15.2918 87.0788 15.4976 87.0788 15.7639C87.0788 16.0545 87.1998 16.2724 87.442 16.4177C87.6841 16.5508 88.011 16.6537 88.4226 16.7264L88.931 16.8172C89.609 16.9382 90.2203 17.1017 90.7651 17.3075C91.322 17.5012 91.7578 17.7857 92.0726 18.161C92.3994 18.5241 92.5629 19.0205 92.5629 19.65C92.5629 20.5943 92.2178 21.3267 91.5278 21.8473C90.8498 22.3557 89.9358 22.61 88.7857 22.61Z"/>
<path d="M98.6719 22.61C97.776 22.61 96.983 22.4223 96.293 22.047C95.6151 21.6596 95.0824 21.1209 94.695 20.4309C94.3197 19.7287 94.1321 18.9055 94.1321 17.9612V17.7433C94.1321 16.799 94.3197 15.9819 94.695 15.2918C95.0703 14.5897 95.5969 14.0509 96.2748 13.6756C96.9528 13.2882 97.7397 13.0945 98.6355 13.0945C99.5193 13.0945 100.288 13.2943 100.942 13.6938C101.595 14.0812 102.104 14.626 102.467 15.3281C102.83 16.0182 103.012 16.8232 103.012 17.7433V18.5241H96.4564C96.4806 19.1416 96.7107 19.644 97.1465 20.0314C97.5823 20.4187 98.115 20.6124 98.7445 20.6124C99.3861 20.6124 99.8583 20.4732 100.161 20.1948C100.464 19.9163 100.694 19.6076 100.851 19.2687L102.721 20.2493C102.552 20.564 102.304 20.909 101.977 21.2843C101.662 21.6475 101.238 21.9623 100.706 22.2286C100.173 22.4828 99.4951 22.61 98.6719 22.61ZM96.4746 16.8172H100.688C100.639 16.2966 100.427 15.879 100.052 15.5642C99.6888 15.2494 99.2106 15.0921 98.6174 15.0921C98 15.0921 97.5097 15.2494 97.1465 15.5642C96.7833 15.879 96.5593 16.2966 96.4746 16.8172Z"/>
<path d="M105.048 22.3557V13.3488H107.3V14.3657H107.627C107.76 14.0025 107.978 13.7362 108.281 13.5667C108.596 13.3972 108.959 13.3125 109.37 13.3125H110.46V15.3463H109.334C108.753 15.3463 108.275 15.5037 107.899 15.8184C107.524 16.1211 107.336 16.5932 107.336 17.2348V22.3557H105.048Z"/>
<path d="M114.137 22.3557L111.268 13.3488H113.701L115.789 20.6851H116.116L118.204 13.3488H120.638L117.769 22.3557H114.137Z"/>
<path d="M122.197 22.3557V13.3488H124.485V22.3557H122.197ZM123.341 12.2955C122.929 12.2955 122.578 12.1624 122.288 11.896C122.009 11.6297 121.87 11.2786 121.87 10.8428C121.87 10.407 122.009 10.0559 122.288 9.78958C122.578 9.52324 122.929 9.39008 123.341 9.39008C123.765 9.39008 124.116 9.52324 124.394 9.78958C124.672 10.0559 124.812 10.407 124.812 10.8428C124.812 11.2786 124.672 11.6297 124.394 11.896C124.116 12.1624 123.765 12.2955 123.341 12.2955Z"/>
<path d="M131.251 22.61C130.38 22.61 129.587 22.4284 128.873 22.0652C128.17 21.702 127.614 21.1754 127.202 20.4853C126.79 19.7953 126.584 18.96 126.584 17.9794V17.7251C126.584 16.7445 126.79 15.9092 127.202 15.2192C127.614 14.5291 128.17 14.0025 128.873 13.6393C129.587 13.2761 130.38 13.0945 131.251 13.0945C132.111 13.0945 132.849 13.2459 133.467 13.5485C134.084 13.8512 134.581 14.2688 134.956 14.8015C135.343 15.3221 135.597 15.9153 135.719 16.5811L133.503 17.0532C133.455 16.6901 133.346 16.3632 133.176 16.0727C133.007 15.7821 132.765 15.5521 132.45 15.3826C132.147 15.2131 131.766 15.1284 131.306 15.1284C130.846 15.1284 130.428 15.2313 130.053 15.4371C129.69 15.6308 129.399 15.9274 129.181 16.3269C128.975 16.7143 128.873 17.1925 128.873 17.7615V17.943C128.873 18.512 128.975 18.9963 129.181 19.3958C129.399 19.7832 129.69 20.0798 130.053 20.2856C130.428 20.4793 130.846 20.5761 131.306 20.5761C131.996 20.5761 132.516 20.4006 132.868 20.0495C133.231 19.6863 133.461 19.2142 133.558 18.6331L135.773 19.1597C135.616 19.8013 135.343 20.3885 134.956 20.9211C134.581 21.4417 134.084 21.8533 133.467 22.156C132.849 22.4586 132.111 22.61 131.251 22.61Z"/>
<path d="M141.764 22.61C140.869 22.61 140.076 22.4223 139.386 22.047C138.708 21.6596 138.175 21.1209 137.788 20.4309C137.412 19.7287 137.225 18.9055 137.225 17.9612V17.7433C137.225 16.799 137.412 15.9819 137.788 15.2918C138.163 14.5897 138.689 14.0509 139.367 13.6756C140.045 13.2882 140.832 13.0945 141.728 13.0945C142.612 13.0945 143.381 13.2943 144.034 13.6938C144.688 14.0812 145.197 14.626 145.56 15.3281C145.923 16.0182 146.104 16.8232 146.104 17.7433V18.5241H139.549C139.573 19.1416 139.803 19.644 140.239 20.0314C140.675 20.4187 141.208 20.6124 141.837 20.6124C142.479 20.6124 142.951 20.4732 143.253 20.1948C143.556 19.9163 143.786 19.6076 143.944 19.2687L145.814 20.2493C145.644 20.564 145.396 20.909 145.069 21.2843C144.755 21.6475 144.331 21.9623 143.798 22.2286C143.266 22.4828 142.588 22.61 141.764 22.61ZM139.567 16.8172H143.78C143.732 16.2966 143.52 15.879 143.145 15.5642C142.781 15.2494 142.303 15.0921 141.71 15.0921C141.093 15.0921 140.602 15.2494 140.239 15.5642C139.876 15.879 139.652 16.2966 139.567 16.8172Z"/>
</mask>
<path d="M40 22.3557V9.6443H44.558L47.0821 20.7214H47.4089V9.6443H49.7696V22.3557H45.2117L42.6876 11.2786H42.3607V22.3557H40Z" fill="black"/>
<path d="M55.0344 22.61C54.3928 22.61 53.8177 22.501 53.3093 22.2831C52.8008 22.0531 52.3952 21.7262 52.0926 21.3025C51.802 20.8667 51.6568 20.3401 51.6568 19.7226C51.6568 19.1052 51.802 18.5907 52.0926 18.1791C52.3952 17.7554 52.8068 17.4406 53.3274 17.2348C53.8601 17.0169 54.4654 16.908 55.1433 16.908H57.613V16.3995C57.613 15.9758 57.4798 15.6308 57.2135 15.3644C56.9471 15.086 56.5234 14.9468 55.9423 14.9468C55.3733 14.9468 54.9496 15.0799 54.6712 15.3463C54.3927 15.6005 54.2112 15.9334 54.1264 16.345L52.02 15.6368C52.1652 15.1768 52.3952 14.7591 52.71 14.3838C53.0369 13.9965 53.4666 13.6877 53.9993 13.4577C54.5441 13.2156 55.2039 13.0945 55.9787 13.0945C57.1651 13.0945 58.1033 13.3911 58.7933 13.9843C59.4834 14.5775 59.8284 15.4371 59.8284 16.5629V19.9224C59.8284 20.2856 59.9979 20.4672 60.3369 20.4672H61.0632V22.3557H59.5378C59.0899 22.3557 58.7207 22.2468 58.4301 22.0289C58.1396 21.8109 57.9943 21.5204 57.9943 21.1572V21.1391H57.6493C57.6009 21.2843 57.4919 21.478 57.3224 21.7202C57.1529 21.9502 56.8866 22.156 56.5234 22.3376C56.1602 22.5192 55.6639 22.61 55.0344 22.61ZM55.4339 20.7577C56.0755 20.7577 56.5961 20.5822 56.9956 20.2311C57.4072 19.8679 57.613 19.3897 57.613 18.7965V18.6149H55.3068C54.883 18.6149 54.5501 18.7057 54.308 18.8873C54.0659 19.0689 53.9448 19.3231 53.9448 19.65C53.9448 19.9769 54.0719 20.2432 54.3262 20.449C54.5804 20.6548 54.9496 20.7577 55.4339 20.7577Z" fill="black"/>
<path d="M62.7361 22.3557V13.3488H64.9879V14.5291H65.3147C65.46 14.2144 65.7324 13.9178 66.1319 13.6393C66.5314 13.3488 67.1367 13.2035 67.9478 13.2035C68.65 13.2035 69.2613 13.3669 69.7819 13.6938C70.3146 14.0086 70.7262 14.4504 71.0167 15.0194C71.3073 15.5763 71.4525 16.23 71.4525 16.9806V22.3557H69.1645V17.1622C69.1645 16.4843 68.995 15.9758 68.656 15.6368C68.3292 15.2979 67.857 15.1284 67.2396 15.1284C66.5375 15.1284 65.9927 15.3644 65.6053 15.8366C65.2179 16.2966 65.0242 16.9443 65.0242 17.7796V22.3557H62.7361Z" fill="black"/>
<path d="M78.2116 22.61C77.3157 22.61 76.5107 22.4284 75.7964 22.0652C75.0821 21.702 74.5192 21.1754 74.1076 20.4853C73.696 19.7953 73.4902 18.966 73.4902 17.9975V17.707C73.4902 16.7385 73.696 15.9092 74.1076 15.2192C74.5192 14.5291 75.0821 14.0025 75.7964 13.6393C76.5107 13.2761 77.3157 13.0945 78.2116 13.0945C79.1074 13.0945 79.9125 13.2761 80.6267 13.6393C81.341 14.0025 81.9039 14.5291 82.3155 15.2192C82.7272 15.9092 82.933 16.7385 82.933 17.707V17.9975C82.933 18.966 82.7272 19.7953 82.3155 20.4853C81.9039 21.1754 81.341 21.702 80.6267 22.0652C79.9125 22.4284 79.1074 22.61 78.2116 22.61ZM78.2116 20.5761C78.9137 20.5761 79.4948 20.3522 79.9549 19.9042C80.4149 19.4442 80.6449 18.7905 80.6449 17.943V17.7615C80.6449 16.914 80.4149 16.2663 79.9549 15.8184C79.5069 15.3584 78.9258 15.1284 78.2116 15.1284C77.5094 15.1284 76.9283 15.3584 76.4683 15.8184C76.0083 16.2663 75.7782 16.914 75.7782 17.7615V17.943C75.7782 18.7905 76.0083 19.4442 76.4683 19.9042C76.9283 20.3522 77.5094 20.5761 78.2116 20.5761Z" fill="black"/>
<path d="M88.7857 22.61C87.6115 22.61 86.649 22.3557 85.8984 21.8473C85.1479 21.3388 84.6939 20.6124 84.5365 19.6682L86.643 19.1234C86.7277 19.5471 86.8669 19.88 87.0606 20.1221C87.2664 20.3643 87.5146 20.5398 87.8052 20.6488C88.1078 20.7456 88.4347 20.794 88.7857 20.794C89.3184 20.794 89.7119 20.7032 89.9661 20.5216C90.2203 20.3279 90.3474 20.0919 90.3474 19.8134C90.3474 19.535 90.2264 19.3231 89.9843 19.1779C89.7421 19.0205 89.3547 18.8934 88.8221 18.7965L88.3136 18.7057C87.6841 18.5847 87.109 18.4212 86.5885 18.2154C86.0679 17.9975 85.6503 17.7009 85.3355 17.3256C85.0207 16.9503 84.8634 16.4661 84.8634 15.8729C84.8634 14.977 85.1902 14.2931 85.844 13.8209C86.4977 13.3367 87.3572 13.0945 88.4226 13.0945C89.4274 13.0945 90.2627 13.3185 90.9285 13.7664C91.5944 14.2144 92.0302 14.8015 92.236 15.5279L90.1114 16.1816C90.0145 15.7216 89.8148 15.3947 89.5121 15.201C89.2216 15.0073 88.8584 14.9105 88.4226 14.9105C87.9867 14.9105 87.6538 14.9892 87.4238 15.1465C87.1938 15.2918 87.0788 15.4976 87.0788 15.7639C87.0788 16.0545 87.1998 16.2724 87.442 16.4177C87.6841 16.5508 88.011 16.6537 88.4226 16.7264L88.931 16.8172C89.609 16.9382 90.2203 17.1017 90.7651 17.3075C91.322 17.5012 91.7578 17.7857 92.0726 18.161C92.3994 18.5241 92.5629 19.0205 92.5629 19.65C92.5629 20.5943 92.2178 21.3267 91.5278 21.8473C90.8498 22.3557 89.9358 22.61 88.7857 22.61Z" fill="black"/>
<path d="M98.6719 22.61C97.776 22.61 96.983 22.4223 96.293 22.047C95.6151 21.6596 95.0824 21.1209 94.695 20.4309C94.3197 19.7287 94.1321 18.9055 94.1321 17.9612V17.7433C94.1321 16.799 94.3197 15.9819 94.695 15.2918C95.0703 14.5897 95.5969 14.0509 96.2748 13.6756C96.9528 13.2882 97.7397 13.0945 98.6355 13.0945C99.5193 13.0945 100.288 13.2943 100.942 13.6938C101.595 14.0812 102.104 14.626 102.467 15.3281C102.83 16.0182 103.012 16.8232 103.012 17.7433V18.5241H96.4564C96.4806 19.1416 96.7107 19.644 97.1465 20.0314C97.5823 20.4187 98.115 20.6124 98.7445 20.6124C99.3861 20.6124 99.8583 20.4732 100.161 20.1948C100.464 19.9163 100.694 19.6076 100.851 19.2687L102.721 20.2493C102.552 20.564 102.304 20.909 101.977 21.2843C101.662 21.6475 101.238 21.9623 100.706 22.2286C100.173 22.4828 99.4951 22.61 98.6719 22.61ZM96.4746 16.8172H100.688C100.639 16.2966 100.427 15.879 100.052 15.5642C99.6888 15.2494 99.2106 15.0921 98.6174 15.0921C98 15.0921 97.5097 15.2494 97.1465 15.5642C96.7833 15.879 96.5593 16.2966 96.4746 16.8172Z" fill="black"/>
<path d="M105.048 22.3557V13.3488H107.3V14.3657H107.627C107.76 14.0025 107.978 13.7362 108.281 13.5667C108.596 13.3972 108.959 13.3125 109.37 13.3125H110.46V15.3463H109.334C108.753 15.3463 108.275 15.5037 107.899 15.8184C107.524 16.1211 107.336 16.5932 107.336 17.2348V22.3557H105.048Z" fill="black"/>
<path d="M114.137 22.3557L111.268 13.3488H113.701L115.789 20.6851H116.116L118.204 13.3488H120.638L117.769 22.3557H114.137Z" fill="black"/>
<path d="M122.197 22.3557V13.3488H124.485V22.3557H122.197ZM123.341 12.2955C122.929 12.2955 122.578 12.1624 122.288 11.896C122.009 11.6297 121.87 11.2786 121.87 10.8428C121.87 10.407 122.009 10.0559 122.288 9.78958C122.578 9.52324 122.929 9.39008 123.341 9.39008C123.765 9.39008 124.116 9.52324 124.394 9.78958C124.672 10.0559 124.812 10.407 124.812 10.8428C124.812 11.2786 124.672 11.6297 124.394 11.896C124.116 12.1624 123.765 12.2955 123.341 12.2955Z" fill="black"/>
<path d="M131.251 22.61C130.38 22.61 129.587 22.4284 128.873 22.0652C128.17 21.702 127.614 21.1754 127.202 20.4853C126.79 19.7953 126.584 18.96 126.584 17.9794V17.7251C126.584 16.7445 126.79 15.9092 127.202 15.2192C127.614 14.5291 128.17 14.0025 128.873 13.6393C129.587 13.2761 130.38 13.0945 131.251 13.0945C132.111 13.0945 132.849 13.2459 133.467 13.5485C134.084 13.8512 134.581 14.2688 134.956 14.8015C135.343 15.3221 135.597 15.9153 135.719 16.5811L133.503 17.0532C133.455 16.6901 133.346 16.3632 133.176 16.0727C133.007 15.7821 132.765 15.5521 132.45 15.3826C132.147 15.2131 131.766 15.1284 131.306 15.1284C130.846 15.1284 130.428 15.2313 130.053 15.4371C129.69 15.6308 129.399 15.9274 129.181 16.3269C128.975 16.7143 128.873 17.1925 128.873 17.7615V17.943C128.873 18.512 128.975 18.9963 129.181 19.3958C129.399 19.7832 129.69 20.0798 130.053 20.2856C130.428 20.4793 130.846 20.5761 131.306 20.5761C131.996 20.5761 132.516 20.4006 132.868 20.0495C133.231 19.6863 133.461 19.2142 133.558 18.6331L135.773 19.1597C135.616 19.8013 135.343 20.3885 134.956 20.9211C134.581 21.4417 134.084 21.8533 133.467 22.156C132.849 22.4586 132.111 22.61 131.251 22.61Z" fill="black"/>
<path d="M141.764 22.61C140.869 22.61 140.076 22.4223 139.386 22.047C138.708 21.6596 138.175 21.1209 137.788 20.4309C137.412 19.7287 137.225 18.9055 137.225 17.9612V17.7433C137.225 16.799 137.412 15.9819 137.788 15.2918C138.163 14.5897 138.689 14.0509 139.367 13.6756C140.045 13.2882 140.832 13.0945 141.728 13.0945C142.612 13.0945 143.381 13.2943 144.034 13.6938C144.688 14.0812 145.197 14.626 145.56 15.3281C145.923 16.0182 146.104 16.8232 146.104 17.7433V18.5241H139.549C139.573 19.1416 139.803 19.644 140.239 20.0314C140.675 20.4187 141.208 20.6124 141.837 20.6124C142.479 20.6124 142.951 20.4732 143.253 20.1948C143.556 19.9163 143.786 19.6076 143.944 19.2687L145.814 20.2493C145.644 20.564 145.396 20.909 145.069 21.2843C144.755 21.6475 144.331 21.9623 143.798 22.2286C143.266 22.4828 142.588 22.61 141.764 22.61ZM139.567 16.8172H143.78C143.732 16.2966 143.52 15.879 143.145 15.5642C142.781 15.2494 142.303 15.0921 141.71 15.0921C141.093 15.0921 140.602 15.2494 140.239 15.5642C139.876 15.879 139.652 16.2966 139.567 16.8172Z" fill="black"/>
<path d="M40 22.3557V9.6443H44.558L47.0821 20.7214H47.4089V9.6443H49.7696V22.3557H45.2117L42.6876 11.2786H42.3607V22.3557H40Z" stroke="black" stroke-width="0.2" mask="url(#path-2-outside-1_2556_40198)"/>
<path d="M55.0344 22.61C54.3928 22.61 53.8177 22.501 53.3093 22.2831C52.8008 22.0531 52.3952 21.7262 52.0926 21.3025C51.802 20.8667 51.6568 20.3401 51.6568 19.7226C51.6568 19.1052 51.802 18.5907 52.0926 18.1791C52.3952 17.7554 52.8068 17.4406 53.3274 17.2348C53.8601 17.0169 54.4654 16.908 55.1433 16.908H57.613V16.3995C57.613 15.9758 57.4798 15.6308 57.2135 15.3644C56.9471 15.086 56.5234 14.9468 55.9423 14.9468C55.3733 14.9468 54.9496 15.0799 54.6712 15.3463C54.3927 15.6005 54.2112 15.9334 54.1264 16.345L52.02 15.6368C52.1652 15.1768 52.3952 14.7591 52.71 14.3838C53.0369 13.9965 53.4666 13.6877 53.9993 13.4577C54.5441 13.2156 55.2039 13.0945 55.9787 13.0945C57.1651 13.0945 58.1033 13.3911 58.7933 13.9843C59.4834 14.5775 59.8284 15.4371 59.8284 16.5629V19.9224C59.8284 20.2856 59.9979 20.4672 60.3369 20.4672H61.0632V22.3557H59.5378C59.0899 22.3557 58.7207 22.2468 58.4301 22.0289C58.1396 21.8109 57.9943 21.5204 57.9943 21.1572V21.1391H57.6493C57.6009 21.2843 57.4919 21.478 57.3224 21.7202C57.1529 21.9502 56.8866 22.156 56.5234 22.3376C56.1602 22.5192 55.6639 22.61 55.0344 22.61ZM55.4339 20.7577C56.0755 20.7577 56.5961 20.5822 56.9956 20.2311C57.4072 19.8679 57.613 19.3897 57.613 18.7965V18.6149H55.3068C54.883 18.6149 54.5501 18.7057 54.308 18.8873C54.0659 19.0689 53.9448 19.3231 53.9448 19.65C53.9448 19.9769 54.0719 20.2432 54.3262 20.449C54.5804 20.6548 54.9496 20.7577 55.4339 20.7577Z" stroke="black" stroke-width="0.2" mask="url(#path-2-outside-1_2556_40198)"/>
<path d="M62.7361 22.3557V13.3488H64.9879V14.5291H65.3147C65.46 14.2144 65.7324 13.9178 66.1319 13.6393C66.5314 13.3488 67.1367 13.2035 67.9478 13.2035C68.65 13.2035 69.2613 13.3669 69.7819 13.6938C70.3146 14.0086 70.7262 14.4504 71.0167 15.0194C71.3073 15.5763 71.4525 16.23 71.4525 16.9806V22.3557H69.1645V17.1622C69.1645 16.4843 68.995 15.9758 68.656 15.6368C68.3292 15.2979 67.857 15.1284 67.2396 15.1284C66.5375 15.1284 65.9927 15.3644 65.6053 15.8366C65.2179 16.2966 65.0242 16.9443 65.0242 17.7796V22.3557H62.7361Z" stroke="black" stroke-width="0.2" mask="url(#path-2-outside-1_2556_40198)"/>
<path d="M78.2116 22.61C77.3157 22.61 76.5107 22.4284 75.7964 22.0652C75.0821 21.702 74.5192 21.1754 74.1076 20.4853C73.696 19.7953 73.4902 18.966 73.4902 17.9975V17.707C73.4902 16.7385 73.696 15.9092 74.1076 15.2192C74.5192 14.5291 75.0821 14.0025 75.7964 13.6393C76.5107 13.2761 77.3157 13.0945 78.2116 13.0945C79.1074 13.0945 79.9125 13.2761 80.6267 13.6393C81.341 14.0025 81.9039 14.5291 82.3155 15.2192C82.7272 15.9092 82.933 16.7385 82.933 17.707V17.9975C82.933 18.966 82.7272 19.7953 82.3155 20.4853C81.9039 21.1754 81.341 21.702 80.6267 22.0652C79.9125 22.4284 79.1074 22.61 78.2116 22.61ZM78.2116 20.5761C78.9137 20.5761 79.4948 20.3522 79.9549 19.9042C80.4149 19.4442 80.6449 18.7905 80.6449 17.943V17.7615C80.6449 16.914 80.4149 16.2663 79.9549 15.8184C79.5069 15.3584 78.9258 15.1284 78.2116 15.1284C77.5094 15.1284 76.9283 15.3584 76.4683 15.8184C76.0083 16.2663 75.7782 16.914 75.7782 17.7615V17.943C75.7782 18.7905 76.0083 19.4442 76.4683 19.9042C76.9283 20.3522 77.5094 20.5761 78.2116 20.5761Z" stroke="black" stroke-width="0.2" mask="url(#path-2-outside-1_2556_40198)"/>
<path d="M88.7857 22.61C87.6115 22.61 86.649 22.3557 85.8984 21.8473C85.1479 21.3388 84.6939 20.6124 84.5365 19.6682L86.643 19.1234C86.7277 19.5471 86.8669 19.88 87.0606 20.1221C87.2664 20.3643 87.5146 20.5398 87.8052 20.6488C88.1078 20.7456 88.4347 20.794 88.7857 20.794C89.3184 20.794 89.7119 20.7032 89.9661 20.5216C90.2203 20.3279 90.3474 20.0919 90.3474 19.8134C90.3474 19.535 90.2264 19.3231 89.9843 19.1779C89.7421 19.0205 89.3547 18.8934 88.8221 18.7965L88.3136 18.7057C87.6841 18.5847 87.109 18.4212 86.5885 18.2154C86.0679 17.9975 85.6503 17.7009 85.3355 17.3256C85.0207 16.9503 84.8634 16.4661 84.8634 15.8729C84.8634 14.977 85.1902 14.2931 85.844 13.8209C86.4977 13.3367 87.3572 13.0945 88.4226 13.0945C89.4274 13.0945 90.2627 13.3185 90.9285 13.7664C91.5944 14.2144 92.0302 14.8015 92.236 15.5279L90.1114 16.1816C90.0145 15.7216 89.8148 15.3947 89.5121 15.201C89.2216 15.0073 88.8584 14.9105 88.4226 14.9105C87.9867 14.9105 87.6538 14.9892 87.4238 15.1465C87.1938 15.2918 87.0788 15.4976 87.0788 15.7639C87.0788 16.0545 87.1998 16.2724 87.442 16.4177C87.6841 16.5508 88.011 16.6537 88.4226 16.7264L88.931 16.8172C89.609 16.9382 90.2203 17.1017 90.7651 17.3075C91.322 17.5012 91.7578 17.7857 92.0726 18.161C92.3994 18.5241 92.5629 19.0205 92.5629 19.65C92.5629 20.5943 92.2178 21.3267 91.5278 21.8473C90.8498 22.3557 89.9358 22.61 88.7857 22.61Z" stroke="black" stroke-width="0.2" mask="url(#path-2-outside-1_2556_40198)"/>
<path d="M98.6719 22.61C97.776 22.61 96.983 22.4223 96.293 22.047C95.6151 21.6596 95.0824 21.1209 94.695 20.4309C94.3197 19.7287 94.1321 18.9055 94.1321 17.9612V17.7433C94.1321 16.799 94.3197 15.9819 94.695 15.2918C95.0703 14.5897 95.5969 14.0509 96.2748 13.6756C96.9528 13.2882 97.7397 13.0945 98.6355 13.0945C99.5193 13.0945 100.288 13.2943 100.942 13.6938C101.595 14.0812 102.104 14.626 102.467 15.3281C102.83 16.0182 103.012 16.8232 103.012 17.7433V18.5241H96.4564C96.4806 19.1416 96.7107 19.644 97.1465 20.0314C97.5823 20.4187 98.115 20.6124 98.7445 20.6124C99.3861 20.6124 99.8583 20.4732 100.161 20.1948C100.464 19.9163 100.694 19.6076 100.851 19.2687L102.721 20.2493C102.552 20.564 102.304 20.909 101.977 21.2843C101.662 21.6475 101.238 21.9623 100.706 22.2286C100.173 22.4828 99.4951 22.61 98.6719 22.61ZM96.4746 16.8172H100.688C100.639 16.2966 100.427 15.879 100.052 15.5642C99.6888 15.2494 99.2106 15.0921 98.6174 15.0921C98 15.0921 97.5097 15.2494 97.1465 15.5642C96.7833 15.879 96.5593 16.2966 96.4746 16.8172Z" stroke="black" stroke-width="0.2" mask="url(#path-2-outside-1_2556_40198)"/>
<path d="M105.048 22.3557V13.3488H107.3V14.3657H107.627C107.76 14.0025 107.978 13.7362 108.281 13.5667C108.596 13.3972 108.959 13.3125 109.37 13.3125H110.46V15.3463H109.334C108.753 15.3463 108.275 15.5037 107.899 15.8184C107.524 16.1211 107.336 16.5932 107.336 17.2348V22.3557H105.048Z" stroke="black" stroke-width="0.2" mask="url(#path-2-outside-1_2556_40198)"/>
<path d="M114.137 22.3557L111.268 13.3488H113.701L115.789 20.6851H116.116L118.204 13.3488H120.638L117.769 22.3557H114.137Z" stroke="black" stroke-width="0.2" mask="url(#path-2-outside-1_2556_40198)"/>
<path d="M122.197 22.3557V13.3488H124.485V22.3557H122.197ZM123.341 12.2955C122.929 12.2955 122.578 12.1624 122.288 11.896C122.009 11.6297 121.87 11.2786 121.87 10.8428C121.87 10.407 122.009 10.0559 122.288 9.78958C122.578 9.52324 122.929 9.39008 123.341 9.39008C123.765 9.39008 124.116 9.52324 124.394 9.78958C124.672 10.0559 124.812 10.407 124.812 10.8428C124.812 11.2786 124.672 11.6297 124.394 11.896C124.116 12.1624 123.765 12.2955 123.341 12.2955Z" stroke="black" stroke-width="0.2" mask="url(#path-2-outside-1_2556_40198)"/>
<path d="M131.251 22.61C130.38 22.61 129.587 22.4284 128.873 22.0652C128.17 21.702 127.614 21.1754 127.202 20.4853C126.79 19.7953 126.584 18.96 126.584 17.9794V17.7251C126.584 16.7445 126.79 15.9092 127.202 15.2192C127.614 14.5291 128.17 14.0025 128.873 13.6393C129.587 13.2761 130.38 13.0945 131.251 13.0945C132.111 13.0945 132.849 13.2459 133.467 13.5485C134.084 13.8512 134.581 14.2688 134.956 14.8015C135.343 15.3221 135.597 15.9153 135.719 16.5811L133.503 17.0532C133.455 16.6901 133.346 16.3632 133.176 16.0727C133.007 15.7821 132.765 15.5521 132.45 15.3826C132.147 15.2131 131.766 15.1284 131.306 15.1284C130.846 15.1284 130.428 15.2313 130.053 15.4371C129.69 15.6308 129.399 15.9274 129.181 16.3269C128.975 16.7143 128.873 17.1925 128.873 17.7615V17.943C128.873 18.512 128.975 18.9963 129.181 19.3958C129.399 19.7832 129.69 20.0798 130.053 20.2856C130.428 20.4793 130.846 20.5761 131.306 20.5761C131.996 20.5761 132.516 20.4006 132.868 20.0495C133.231 19.6863 133.461 19.2142 133.558 18.6331L135.773 19.1597C135.616 19.8013 135.343 20.3885 134.956 20.9211C134.581 21.4417 134.084 21.8533 133.467 22.156C132.849 22.4586 132.111 22.61 131.251 22.61Z" stroke="black" stroke-width="0.2" mask="url(#path-2-outside-1_2556_40198)"/>
<path d="M141.764 22.61C140.869 22.61 140.076 22.4223 139.386 22.047C138.708 21.6596 138.175 21.1209 137.788 20.4309C137.412 19.7287 137.225 18.9055 137.225 17.9612V17.7433C137.225 16.799 137.412 15.9819 137.788 15.2918C138.163 14.5897 138.689 14.0509 139.367 13.6756C140.045 13.2882 140.832 13.0945 141.728 13.0945C142.612 13.0945 143.381 13.2943 144.034 13.6938C144.688 14.0812 145.197 14.626 145.56 15.3281C145.923 16.0182 146.104 16.8232 146.104 17.7433V18.5241H139.549C139.573 19.1416 139.803 19.644 140.239 20.0314C140.675 20.4187 141.208 20.6124 141.837 20.6124C142.479 20.6124 142.951 20.4732 143.253 20.1948C143.556 19.9163 143.786 19.6076 143.944 19.2687L145.814 20.2493C145.644 20.564 145.396 20.909 145.069 21.2843C144.755 21.6475 144.331 21.9623 143.798 22.2286C143.266 22.4828 142.588 22.61 141.764 22.61ZM139.567 16.8172H143.78C143.732 16.2966 143.52 15.879 143.145 15.5642C142.781 15.2494 142.303 15.0921 141.71 15.0921C141.093 15.0921 140.602 15.2494 140.239 15.5642C139.876 15.879 139.652 16.2966 139.567 16.8172Z" stroke="black" stroke-width="0.2" mask="url(#path-2-outside-1_2556_40198)"/>
</svg>
