<svg width="32" height="32" viewBox="0 0 32 32" fill="none" xmlns="http://www.w3.org/2000/svg">
<path fill-rule="evenodd" clip-rule="evenodd" d="M12.0331 6.47051C12.0331 4.27766 13.8082 2.5 15.998 2.5C18.1877 2.5 19.9628 4.27766 19.9628 6.47051C19.9628 7.63653 19.4609 8.68516 18.6617 9.41155L21.7943 10.9303C22.6592 11.3496 23.219 12.212 23.2552 13.1682C23.9707 12.4635 24.9522 12.0288 26.0351 12.0288C28.2249 12.0288 30 13.8065 30 15.9993C30 18.1922 28.2249 19.9698 26.0351 19.9698C24.9513 19.9698 23.969 19.5343 23.2533 18.8285C23.2033 19.7623 22.654 20.6019 21.8098 21.0181L18.6486 22.5767C19.4555 23.3035 19.9628 24.3572 19.9628 25.5295C19.9628 27.7223 18.1877 29.5 15.998 29.5C13.8082 29.5 12.0331 27.7223 12.0331 25.5295C12.0331 24.3678 12.5313 23.3226 13.3255 22.5965L10.1729 21.0176C9.33533 20.5982 8.79202 19.7611 8.74358 18.8316C8.02813 19.5356 7.04714 19.9698 5.96487 19.9698C3.77513 19.9698 2 18.1922 2 15.9993C2 13.8065 3.77513 12.0288 5.96487 12.0288C7.04623 12.0288 8.02648 12.4623 8.74177 13.1653C8.77643 12.2133 9.3302 11.3533 10.1884 10.9307L13.3129 9.39199C12.5261 8.6664 12.0331 7.62611 12.0331 6.47051ZM15.998 4.57681C14.9536 4.57681 14.107 5.42465 14.107 6.47051C14.107 7.51637 14.9536 8.36421 15.998 8.36421C17.0424 8.36421 17.889 7.51637 17.889 6.47051C17.889 5.42465 17.0424 4.57681 15.998 4.57681ZM16.1812 10.5164C16.0375 10.4467 15.8698 10.4472 15.7265 10.5178L11.1036 12.7943C10.9262 12.8817 10.8139 13.0623 10.8139 13.2602V18.6958C10.8139 18.8924 10.9248 19.0722 11.1005 19.1602L15.7234 21.4754C15.8684 21.548 16.0389 21.5485 16.1844 21.4768L20.8937 19.1549C21.071 19.0675 21.1832 18.8869 21.1832 18.6891V13.2669C21.1832 13.0679 21.0696 12.8863 20.8907 12.7996L16.1812 10.5164ZM14.107 25.5295C14.107 24.4836 14.9536 23.6358 15.998 23.6358C17.0424 23.6358 17.889 24.4836 17.889 25.5295C17.889 26.5754 17.0424 27.4232 15.998 27.4232C14.9536 27.4232 14.107 26.5754 14.107 25.5295ZM26.0351 14.1056C24.9908 14.1056 24.1441 14.9534 24.1441 15.9993C24.1441 17.0452 24.9908 17.893 26.0351 17.893C27.0795 17.893 27.9261 17.0452 27.9261 15.9993C27.9261 14.9534 27.0795 14.1056 26.0351 14.1056ZM4.07386 15.9993C4.07386 14.9534 4.92049 14.1056 5.96487 14.1056C7.00925 14.1056 7.85589 14.9534 7.85589 15.9993C7.85589 17.0452 7.00925 17.893 5.96487 17.893C4.92049 17.893 4.07386 17.0452 4.07386 15.9993Z" fill="#39C068"/>
</svg>
